<?xml version="1.0" standalone="no"?>
<!DOCTYPE svg PUBLIC "-//W3C//DTD SVG 20010904//EN"
 "http://www.w3.org/TR/2001/REC-SVG-20010904/DTD/svg10.dtd">
<svg version="1.0" xmlns="http://www.w3.org/2000/svg"
 width="120.000000pt" height="120.000000pt" viewBox="0 0 120.000000 120.000000"
 preserveAspectRatio="xMidYMid meet">

<g transform="translate(0.000000,120.000000) scale(0.100000,-0.100000)"
fill="#9b6be8" stroke="none">
<path d="M545 1184 c-11 -2 -51 -12 -90 -20 -109 -25 -180 -66 -271 -158 -60
-60 -89 -99 -113 -151 -110 -234 -67 -491 113 -671 314 -314 847 -180 977 246
33 111 32 239 -4 345 -64 191 -211 333 -396 384 -72 20 -182 33 -216 25z m169
-310 c73 -25 140 -98 166 -180 11 -36 20 -74 20 -83 0 -35 -43 -146 -67 -176
-68 -81 -171 -116 -282 -96 -61 11 -70 10 -148 -15 -111 -37 -117 -31 -79 77
27 77 28 84 17 147 -21 118 12 212 98 283 70 57 182 75 275 43z"/>
<path d="M525 816 c-64 -29 -110 -82 -129 -147 -14 -47 -14 -57 1 -116 17 -63
17 -66 -4 -123 l-21 -58 32 9 c17 5 43 14 58 20 22 9 41 8 91 -6 50 -13 71
-15 102 -6 68 19 118 54 149 104 73 119 27 267 -101 324 -67 29 -115 29 -178
-1z"/>
</g>
</svg>
